<?xml version="1.0" standalone="no"?>
<!DOCTYPE svg PUBLIC "-//W3C//DTD SVG 20010904//EN"
 "http://www.w3.org/TR/2001/REC-SVG-20010904/DTD/svg10.dtd">
<svg version="1.0" xmlns="http://www.w3.org/2000/svg"
 width="700.000000pt" height="700.000000pt" viewBox="0 0 700.000000 700.000000"
 preserveAspectRatio="xMidYMid meet">
<metadata>
Created by potrace 1.11, written by Peter Selinger 2001-2013
</metadata>
<g transform="translate(0.000000,700.000000) scale(0.100000,-0.100000)"
fill="#000000" stroke="none">
<path d="M3215 6989 c-1004 -86 -1899 -579 -2513 -1387 -373 -489 -613 -1100
-684 -1737 -17 -154 -17 -585 0 -730 44 -370 129 -694 269 -1020 276 -645 764
-1212 1365 -1586 447 -278 924 -443 1483 -511 130 -16 600 -16 730 0 451 55
818 163 1195 351 729 364 1312 973 1639 1714 144 325 238 675 283 1052 16 139
16 595 0 730 -108 889 -477 1619 -1122 2217 -507 471 -1171 785 -1865 882
-249 35 -546 45 -780 25z m1627 -1370 c90 -50 169 -96 175 -103 19 -17 19
-4015 1 -4032 -27 -25 -341 -194 -361 -194 -11 0 -48 15 -81 34 -34 18 -275
152 -536 298 -261 146 -1022 570 -1690 943 -668 372 -1232 688 -1252 701 l-38
24 0 209 c0 186 2 209 18 223 9 8 379 216 822 463 443 246 1129 629 1525 850
396 221 830 463 965 538 135 75 255 137 267 137 13 0 96 -41 185 -91z"/>
<path d="M4570 5547 c-41 -24 -415 -233 -830 -465 -415 -231 -1146 -639 -1625
-906 -478 -266 -871 -489 -873 -494 -2 -6 46 -37 105 -70 59 -32 520 -289
1023 -570 503 -281 1210 -675 1570 -876 l655 -365 3 1516 c1 834 0 1518 -2
1520 -2 2 -45 -20 -97 -49 l-94 -54 -6 -734 c-3 -404 -7 -970 -8 -1257 -1
-567 0 -553 -56 -553 -12 0 -517 276 -1121 613 -605 337 -1188 662 -1298 722
-204 113 -229 134 -210 176 9 20 246 153 2597 1464 488 272 554 312 539 323
-25 20 -178 102 -188 102 -5 0 -43 -20 -84 -43z"/>
<path d="M4520 5159 c-500 -279 -919 -513 -1835 -1024 -861 -480 -805 -449
-805 -455 0 -8 185 -110 199 -110 6 0 82 40 169 89 129 73 1078 602 1907 1064
519 289 512 286 543 255 17 -17 17 -3299 0 -3316 -24 -24 -65 -10 -212 72
-200 110 -2764 1541 -3070 1712 -132 74 -241 134 -243 134 -1 0 -3 -51 -3
-114 l0 -115 52 -29 c29 -16 658 -367 1398 -779 740 -413 1499 -836 1688 -942
188 -105 345 -191 348 -191 3 0 64 32 135 72 l129 71 0 1914 c0 1052 -1 1913
-2 1913 -2 0 -181 -100 -398 -221z"/>
<path d="M3355 4149 c-511 -286 -981 -548 -1042 -582 -62 -34 -113 -64 -113
-67 0 -3 87 -53 193 -112 105 -58 572 -318 1036 -577 464 -259 845 -470 846
-469 3 4 16 2328 13 2328 -2 -1 -421 -235 -933 -521z"/>
</g>
</svg>
